<svg xmlns="http://www.w3.org/2000/svg" viewBox="0 0 260 360" role="img" aria-label="오마모리 매듭 부적">
  <defs>
    <linearGradient id="bg" x1="0" y1="0" x2="1" y2="1">
      <stop offset="0" stop-color="#3a1024"/>
      <stop offset="1" stop-color="#63192f"/>
    </linearGradient>
    <linearGradient id="paper" x1="0" y1="0" x2="0" y2="1">
      <stop offset="0" stop-color="#fff5df"/>
      <stop offset="1" stop-color="#f0debb"/>
    </linearGradient>
    <linearGradient id="cloth" x1="0" y1="0" x2="0" y2="1">
      <stop offset="0" stop-color="#d33b33"/>
      <stop offset="1" stop-color="#8f1f1a"/>
    </linearGradient>
  </defs>
  <rect width="260" height="360" rx="24" fill="url(#bg)"/>
  <rect x="12" y="12" width="236" height="336" rx="18" fill="none" stroke="#e6b46a" stroke-opacity="0.9" stroke-width="2"/>

  <g transform="translate(0 12)">
    <ellipse cx="130" cy="60" rx="48" ry="24" fill="#f8ddb0" fill-opacity="0.22"/>
    <path d="M100 74C110 58 150 58 160 74" fill="none" stroke="#f8ddb0" stroke-width="8" stroke-linecap="round"/>
    <path d="M115 76C124 88 136 88 145 76" fill="none" stroke="#f8ddb0" stroke-width="8" stroke-linecap="round"/>

    <rect x="74" y="92" width="112" height="170" rx="22" fill="url(#cloth)" stroke="#f0c478" stroke-width="3"/>
    <rect x="94" y="122" width="72" height="120" rx="12" fill="url(#paper)"/>
    <path d="M106 152H154M106 172H154M106 192H146" stroke="#9f3624" stroke-opacity="0.45" stroke-width="4" stroke-linecap="round"/>
    <text x="130" y="222" text-anchor="middle" font-size="28" fill="#b2352a" font-family="serif">御守</text>
  </g>

  <text x="130" y="316" text-anchor="middle" font-size="23" fill="#ffe5b8" font-family="Noto Sans KR, sans-serif" font-weight="700">오마모리 매듭</text>
  <text x="130" y="340" text-anchor="middle" font-size="13" fill="#f4c37f" font-family="Noto Sans KR, sans-serif">보호와 안정을 부르는 부적</text>
</svg>
